<?xml version="1.0" encoding="utf-8"?>
<!-- Generator: Adobe Illustrator 22.1.0, SVG Export Plug-In . SVG Version: 6.00 Build 0)  -->
<svg version="1.1" id="レイヤー_1" xmlns="http://www.w3.org/2000/svg" xmlns:xlink="http://www.w3.org/1999/xlink" x="0px"
	 y="0px" viewBox="0 0 595.3 841.9" style="enable-background:new 0 0 595.3 841.9;" xml:space="preserve">
<style type="text/css">
	.st0{clip-path:url(#SVGID_2_);}
	.st1{clip-path:url(#SVGID_4_);fill:#C9BC9C;}
	.st2{clip-path:url(#SVGID_4_);fill:#00A29A;}
	.st3{clip-path:url(#SVGID_4_);fill:#F39800;}
	.st4{clip-path:url(#SVGID_4_);fill:#3E3A39;}
	.st5{clip-path:url(#SVGID_4_);fill:none;stroke:#FFFFFF;stroke-width:2.8346;stroke-miterlimit:10;}
	.st6{clip-path:url(#SVGID_4_);fill:none;stroke:#3E3A39;stroke-width:53.8583;stroke-miterlimit:10;}
	.st7{clip-path:url(#SVGID_4_);fill:none;stroke:#3E3A39;stroke-width:70.8661;stroke-miterlimit:10;}
	.st8{clip-path:url(#SVGID_4_);fill:none;stroke:#3E3A39;stroke-width:76.5354;stroke-miterlimit:10;}
</style>
<g>
	<defs>
		<rect id="SVGID_1_" x="-2.8" y="370.8" width="772" height="424"/>
	</defs>
	<clipPath id="SVGID_2_">
		<use xlink:href="#SVGID_1_"  style="overflow:visible;"/>
	</clipPath>
	<g class="st0">
		<defs>
			<rect id="SVGID_3_" x="2.9" y="132.7" width="591.8" height="579.2"/>
		</defs>
		<clipPath id="SVGID_4_">
			<use xlink:href="#SVGID_3_"  style="overflow:visible;"/>
		</clipPath>
		<rect x="-24.6" y="627.1" class="st1" width="57.9" height="119.9"/>
		<rect x="111.9" y="627.1" class="st1" width="57.9" height="119.9"/>
		<rect x="247" y="627.1" class="st1" width="57.9" height="119.9"/>
		<rect x="179.4" y="627.1" class="st2" width="57.9" height="119.9"/>
		<rect x="44.3" y="627.1" class="st1" width="57.9" height="119.9"/>
		<rect x="343.2" y="233.2" class="st1" width="57.9" height="119.9"/>
		<rect x="479.7" y="233.2" class="st1" width="57.9" height="119.9"/>
		<rect x="614.8" y="233.2" class="st1" width="57.9" height="119.9"/>
		<rect x="547.3" y="233.2" class="st2" width="57.9" height="119.9"/>
		<rect x="412.2" y="233.2" class="st1" width="57.9" height="119.9"/>
		<rect x="-61" y="103.2" class="st1" width="57.9" height="119.9"/>
		<rect x="75.4" y="103.2" class="st1" width="57.9" height="119.9"/>
		<rect x="210.5" y="103.2" class="st1" width="57.9" height="119.9"/>
		<rect x="143" y="103.2" class="st2" width="57.9" height="119.9"/>
		
			<rect x="31" y="480.3" transform="matrix(-1.836970e-16 1 -1 -1.836970e-16 650.0577 430.4678)" class="st3" width="157.5" height="119.9"/>
		<rect x="7.9" y="103.2" class="st1" width="57.9" height="119.9"/>
		
			<rect x="210.4" y="463.5" transform="matrix(-1.836970e-16 1 -1 -1.836970e-16 762.8285 284.0711)" class="st1" width="57.9" height="119.9"/>
		
			<rect x="-77" y="507.1" transform="matrix(-1.836970e-16 1 -1 -1.836970e-16 542.0596 538.4659)" class="st1" width="157.5" height="66.4"/>
		<rect x="-321.9" y="388.7" class="st4" width="525.1" height="77.4"/>
		<line class="st5" x1="329.5" y1="589.7" x2="329.5" y2="887.2"/>
		<rect x="494.5" y="624.9" class="st1" width="139.6" height="119.9"/>
		
			<rect x="391.8" y="655.9" transform="matrix(-1.836970e-16 1 -1 -1.836970e-16 1136.6045 295.0868)" class="st1" width="57.9" height="119.9"/>
		
			<rect x="391.8" y="593.8" transform="matrix(-1.836970e-16 1 -1 -1.836970e-16 1074.5698 233.052)" class="st3" width="57.9" height="119.9"/>
		
			<rect x="525.5" y="502.9" transform="matrix(-1.836970e-16 1 -1 -1.836970e-16 1117.295 8.4534)" class="st1" width="57.9" height="119.9"/>
		
			<rect x="210.4" y="530.1" transform="matrix(-1.836970e-16 1 -1 -1.836970e-16 829.4655 350.7082)" class="st1" width="57.9" height="119.9"/>
		
			<rect x="586.2" y="67.6" transform="matrix(-1.836970e-16 1 -1 -1.836970e-16 742.713 -487.6173)" class="st1" width="57.9" height="119.9"/>
		
			<rect x="298.8" y="111.2" transform="matrix(-1.836970e-16 1 -1 -1.836970e-16 521.9441 -233.2225)" class="st1" width="157.5" height="66.4"/>
		
			<rect x="586.2" y="134.2" transform="matrix(-1.836970e-16 1 -1 -1.836970e-16 809.35 -420.9803)" class="st1" width="57.9" height="119.9"/>
		
			<rect x="406.8" y="84.4" transform="matrix(-1.836970e-16 1 -1 -1.836970e-16 629.9422 -341.2207)" class="st3" width="157.5" height="119.9"/>
		
			<rect x="391.8" y="502.9" transform="matrix(-1.836970e-16 1 -1 -1.836970e-16 983.6331 142.1154)" class="st1" width="57.9" height="119.9"/>
		
			<rect x="525.5" y="432.7" transform="matrix(-1.836970e-16 1 -1 -1.836970e-16 1047.1051 -61.7365)" class="st1" width="57.9" height="119.9"/>
		
			<rect x="391.8" y="432.7" transform="matrix(-1.836970e-16 1 -1 -1.836970e-16 913.4432 71.9255)" class="st1" width="57.9" height="119.9"/>
		
			<rect x="180.3" y="272.4" transform="matrix(-1.836970e-16 1 -1 -1.836970e-16 541.575 123.1168)" class="st1" width="57.9" height="119.9"/>
		
			<rect x="52.4" y="272.4" transform="matrix(-1.836970e-16 1 -1 -1.836970e-16 413.6456 251.0461)" class="st1" width="57.9" height="119.9"/>
		
			<rect x="180.3" y="202.2" transform="matrix(-1.836970e-16 1 -1 -1.836970e-16 471.385 52.9269)" class="st1" width="57.9" height="119.9"/>
		
			<rect x="52.4" y="202.2" transform="matrix(-1.836970e-16 1 -1 -1.836970e-16 343.4557 180.8562)" class="st1" width="57.9" height="119.9"/>
		
			<rect x="-76.1" y="272.4" transform="matrix(-1.836970e-16 1 -1 -1.836970e-16 285.2347 379.4571)" class="st1" width="57.9" height="119.9"/>
		
			<rect x="-76.1" y="202.2" transform="matrix(-1.836970e-16 1 -1 -1.836970e-16 215.0448 309.2671)" class="st1" width="57.9" height="119.9"/>
		<path class="st6" d="M18.3,439.3c104,0,282.2-0.4,283.9,204.3"/>
		<path class="st6" d="M369.4,934.7c-4.3-329,30.2-501,297.5-530.2"/>
		<line class="st7" x1="639.4" y1="406.1" x2="-72.5" y2="406.1"/>
		<line class="st7" x1="639.4" y1="406.1" x2="-72.5" y2="406.1"/>
		<line class="st7" x1="639.4" y1="406.1" x2="-72.5" y2="406.1"/>
		<line class="st8" x1="310.8" y1="743.5" x2="310.8" y2="31.6"/>
		<path class="st5" d="M469.1,445.5c48.4-40.5,114.9-61.9,207.5-64"/>
		<line class="st5" x1="264.8" y1="369.2" x2="349.8" y2="369.2"/>
		<line class="st5" x1="271.3" y1="443.1" x2="353.2" y2="443.1"/>
	</g>
</g>
<g>
</g>
<g>
</g>
<g>
</g>
<g>
</g>
<g>
</g>
<g>
</g>
</svg>
